<?xml version="1.0" encoding="UTF-8"?>
<svg xmlns="http://www.w3.org/2000/svg" viewBox="0 0 64 64" width="64" height="64">
  <defs>
    <linearGradient id="g" x1="0" x2="1" y1="0" y2="1">
      <stop offset="0" stop-color="#d4b46a"/>
      <stop offset="1" stop-color="#b0893b"/>
    </linearGradient>
  </defs>
  <rect width="64" height="64" rx="12" ry="12" fill="url(#g)"/>
  <!-- chip body -->
  <rect x="16" y="18" width="32" height="28" rx="4" fill="#0d0d0d" opacity="0.95"/>
  <!-- inner square -->
  <rect x="22" y="24" width="20" height="16" rx="2" fill="#d4b46a" opacity="0.98"/>
  <!-- pins top/bottom -->
  <g fill="#0d0d0d">
    <rect x="20" y="14" width="4" height="4" rx="1"/>
    <rect x="28" y="14" width="4" height="4" rx="1"/>
    <rect x="36" y="14" width="4" height="4" rx="1"/>
    <rect x="20" y="46" width="4" height="4" rx="1"/>
    <rect x="28" y="46" width="4" height="4" rx="1"/>
    <rect x="36" y="46" width="4" height="4" rx="1"/>
  </g>
  <!-- pins left/right -->
  <g fill="#0d0d0d">
    <rect x="12" y="20" width="4" height="6" rx="1"/>
    <rect x="12" y="30" width="4" height="6" rx="1"/>
    <rect x="48" y="20" width="4" height="6" rx="1"/>
    <rect x="48" y="30" width="4" height="6" rx="1"/>
  </g>
</svg>
